<?xml version="1.0" encoding="utf-8"?>
<!-- Generator: Adobe Illustrator 27.5.0, SVG Export Plug-In . SVG Version: 6.00 Build 0)  -->
<svg version="1.1" id="Layer_1" xmlns="http://www.w3.org/2000/svg" xmlns:xlink="http://www.w3.org/1999/xlink" x="0px" y="0px"
	 viewBox="0 0 4000 4000" style="enable-background:new 0 0 4000 4000;" xml:space="preserve">
<rect x="-0.5" y="-0.5" style="fill:#FFFFFF;stroke:#000000;stroke-miterlimit:10;" width="4000" height="4000"/>
<g>
	<g>
		<defs>
			<path id="SVGID_1_" d="M1999.727,2098.046C2546.979,3045.915,2321.313,3170,3350.832,3170
				c-225.184-390.03-450.368-780.061-675.553-1170.091c-225.184-390.03-450.367-780.061-675.552-1170.091
				c-225.184,390.03-450.368,780.061-675.552,1170.091C1098.991,2389.94,873.806,2779.97,648.622,3170
				C1678.142,3170,1452.475,3045.915,1999.727,2098.046"/>
		</defs>
		<clipPath id="SVGID_00000044146076175962032480000004242900137901952159_">
			<use xlink:href="#SVGID_1_"  style="overflow:visible;"/>
		</clipPath>
		
			<linearGradient id="SVGID_00000102528195378503753240000004271098536055598989_" gradientUnits="userSpaceOnUse" x1="1999.7273" y1="849.9625" x2="1999.7273" y2="2889.3911">
			<stop  offset="0" style="stop-color:#FFCE4B"/>
			<stop  offset="1" style="stop-color:#D3116F"/>
		</linearGradient>
		
			<rect x="648.622" y="829.818" style="clip-path:url(#SVGID_00000044146076175962032480000004242900137901952159_);fill:url(#SVGID_00000102528195378503753240000004271098536055598989_);" width="2702.21" height="2340.182"/>
	</g>
	<defs>
		
			<filter id="Adobe_OpacityMaskFilter" filterUnits="userSpaceOnUse" x="1010.279" y="1447.156" width="1978.897" height="1713.775">
			<feColorMatrix  type="matrix" values="1 0 0 0 0  0 1 0 0 0  0 0 1 0 0  0 0 0 1 0"/>
		</filter>
	</defs>
	
		<mask maskUnits="userSpaceOnUse" x="1010.279" y="1447.156" width="1978.897" height="1713.775" id="SVGID_00000011728466459535679240000000554751290375235457_">
		<g style="filter:url(#Adobe_OpacityMaskFilter);">
			
				<linearGradient id="SVGID_00000144322207600308656300000009444830457505453704_" gradientUnits="userSpaceOnUse" x1="986.7744" y1="1719.21" x2="986.7744" y2="3725.5784" gradientTransform="matrix(1 0 0 1 1012.953 -312.3119)">
				<stop  offset="0" style="stop-color:#FFFFFF"/>
				<stop  offset="1" style="stop-color:#000000"/>
			</linearGradient>
			
				<rect x="1010.279" y="1447.156" style="fill:url(#SVGID_00000144322207600308656300000009444830457505453704_);" width="1978.897" height="1713.775"/>
		</g>
	</mask>
	
		<path style="mask:url(#SVGID_00000011728466459535679240000000554751290375235457_);fill-rule:evenodd;clip-rule:evenodd;fill:#990038;" d="
		M1999.727,2098.046c471.254,816.235,369.43,1021.587,989.449,1062.886l-313.896-543.684
		c-225.184-390.031-450.367-780.061-675.552-1170.091c-225.184,390.03-450.368,780.061-675.552,1170.091l-313.896,543.684
		C1630.299,3119.633,1528.473,2914.281,1999.727,2098.046"/>
	<defs>
		
			<filter id="Adobe_OpacityMaskFilter_00000014593356486842740660000003378083115828351616_" filterUnits="userSpaceOnUse" x="654.602" y="829.818" width="2690.251" height="2329.825">
			<feColorMatrix  type="matrix" values="1 0 0 0 0  0 1 0 0 0  0 0 1 0 0  0 0 0 1 0"/>
		</filter>
	</defs>
	
		<mask maskUnits="userSpaceOnUse" x="654.602" y="829.818" width="2690.251" height="2329.825" id="SVGID_00000066496616372831687710000009004215461562480776_">
		<g style="filter:url(#Adobe_OpacityMaskFilter_00000014593356486842740660000003378083115828351616_);">
			
				<linearGradient id="SVGID_00000021803315439658522250000004451889500404317080_" gradientUnits="userSpaceOnUse" x1="1092.8307" y1="531.8807" x2="1092.8307" y2="2712.7" gradientTransform="matrix(1 0 0 1 906.8967 -312.696)">
				<stop  offset="0" style="stop-color:#FFFFFF"/>
				<stop  offset="1" style="stop-color:#000000"/>
			</linearGradient>
			
				<rect x="654.602" y="829.818" style="fill:url(#SVGID_00000021803315439658522250000004451889500404317080_);" width="2690.251" height="2329.825"/>
		</g>
	</mask>
	
		<path style="mask:url(#SVGID_00000066496616372831687710000009004215461562480776_);fill-rule:evenodd;clip-rule:evenodd;fill:#FCE2A6;" d="
		M1162.88,2448.963c278.948-390.03,557.898-780.061,836.847-1170.091c278.949,390.03,557.899,780.061,836.847,1170.091
		c169.426,236.893,338.853,473.787,508.279,710.68c-223.191-386.578-446.383-773.156-669.573-1159.734
		c-225.184-390.03-450.367-780.061-675.552-1170.091c-225.184,390.03-450.368,780.061-675.552,1170.091
		c-223.191,386.578-446.382,773.156-669.573,1159.733C824.028,2922.75,993.453,2685.857,1162.88,2448.963"/>
	<defs>
		
			<filter id="Adobe_OpacityMaskFilter_00000168119357786936263700000015880845508151837620_" filterUnits="userSpaceOnUse" x="1356.789" y="1447.156" width="1285.877" height="1113.603">
			<feColorMatrix  type="matrix" values="1 0 0 0 0  0 1 0 0 0  0 0 1 0 0  0 0 0 1 0"/>
		</filter>
	</defs>
	
		<mask maskUnits="userSpaceOnUse" x="1356.789" y="1447.156" width="1285.877" height="1113.603" id="SVGID_00000024681395035801612050000007682825549898246063_">
		<g style="filter:url(#Adobe_OpacityMaskFilter_00000168119357786936263700000015880845508151837620_);">
			
				<linearGradient id="SVGID_00000060739623733447301790000006740411988486478240_" gradientUnits="userSpaceOnUse" x1="883.4514" y1="1927.5149" x2="883.4514" y2="2795.3091" gradientTransform="matrix(1 0 0 1 1116.2758 -491.2722)">
				<stop  offset="0" style="stop-color:#FFFFFF"/>
				<stop  offset="1" style="stop-color:#000000"/>
			</linearGradient>
			
				<rect x="1356.789" y="1447.156" style="fill:url(#SVGID_00000060739623733447301790000006740411988486478240_);" width="1285.877" height="1113.603"/>
		</g>
	</mask>
	
		<path style="mask:url(#SVGID_00000024681395035801612050000007682825549898246063_);fill-rule:evenodd;clip-rule:evenodd;fill:#890028;" d="
		M1999.727,1447.156c-214.313,371.201-428.626,742.402-642.938,1113.603c400.494-683.051,642.938-462.713,642.938-462.713
		s242.445-220.338,642.939,462.713C2428.354,2189.558,2214.04,1818.357,1999.727,1447.156"/>
	<defs>
		
			<filter id="Adobe_OpacityMaskFilter_00000149367352217297236220000015007796164125208707_" filterUnits="userSpaceOnUse" x="1071.168" y="1346.504" width="1732.305" height="1708.966">
			<feColorMatrix  type="matrix" values="1 0 0 0 0  0 1 0 0 0  0 0 1 0 0  0 0 0 1 0"/>
		</filter>
	</defs>
	
		<mask maskUnits="userSpaceOnUse" x="1071.168" y="1346.504" width="1732.305" height="1708.966" id="SVGID_00000012467655205893768890000006237883571373330341_">
		<g style="filter:url(#Adobe_OpacityMaskFilter_00000149367352217297236220000015007796164125208707_);">
			
				<linearGradient id="SVGID_00000001643639867925082510000009310284113414469048_" gradientUnits="userSpaceOnUse" x1="906.2114" y1="1159.3175" x2="906.2114" y2="2647.8064" gradientTransform="matrix(1 0 0 1 1031.1089 -343.7586)">
				<stop  offset="0" style="stop-color:#FFFFFF"/>
				<stop  offset="1" style="stop-color:#000000"/>
			</linearGradient>
			
				<rect x="1071.168" y="1346.504" style="fill:url(#SVGID_00000001643639867925082510000009310284113414469048_);" width="1732.305" height="1708.966"/>
		</g>
	</mask>
	
		<path style="mask:url(#SVGID_00000012467655205893768890000006237883571373330341_);fill-rule:evenodd;clip-rule:evenodd;fill:#FCE2A6;" d="
		M1999.727,1447.156c214.313,371.201,428.626,742.402,642.94,1113.603c10.871,18.829,21.742,37.659,32.613,56.488l128.193,222.037
		c-275.371-497.594-516.459-995.187-803.746-1492.781c-329.816,571.259-598.744,1137.708-928.559,1708.966l253.007-438.223
		c10.872-18.829,21.742-37.659,32.614-56.488C1571.101,2189.558,1785.414,1818.357,1999.727,1447.156"/>
</g>
</svg>
